<?xml version="1.0" standalone="no"?>
<!DOCTYPE svg PUBLIC "-//W3C//DTD SVG 20010904//EN"
 "http://www.w3.org/TR/2001/REC-SVG-20010904/DTD/svg10.dtd">
<svg version="1.0" xmlns="http://www.w3.org/2000/svg"
 width="296.000000pt" height="386.000000pt" viewBox="0 0 296.000000 386.000000"
 preserveAspectRatio="xMidYMid meet">

<g transform="translate(0.000000,386.000000) scale(0.100000,-0.100000)"
fill="#000000" stroke="none">
<path d="M0 1930 l0 -1930 1480 0 1480 0 0 1930 0 1930 -1480 0 -1480 0 0
-1930z m1128 893 l-3 -958 -480 0 -480 0 3 135 c11 536 170 1104 398 1421 86
120 226 249 318 295 78 38 157 62 214 63 l32 1 -2 -957z m550 -19 c581 -86
1056 -552 1157 -1134 22 -126 22 -348 1 -463 -103 -548 -529 -987 -1076 -1109
-154 -34 -361 -32 -517 4 -271 64 -506 198 -696 398 -234 246 -362 542 -382
885 -5 98 6 268 21 318 5 16 33 17 406 17 377 0 400 -1 393 -17 -35 -79 -49
-138 -53 -221 -6 -119 9 -196 60 -302 33 -69 56 -100 122 -165 119 -118 249
-175 396 -175 208 0 422 141 518 341 51 106 66 184 59 302 -9 158 -63 275
-181 393 -113 114 -253 174 -400 174 -75 0 -142 -17 -228 -54 -17 -8 -18 15
-18 393 l0 401 23 5 c109 27 256 30 395 9z"/>
</g>
</svg>
